<?xml version="1.0" encoding="utf-8"?>
<!-- Generator: Adobe Illustrator 21.0.0, SVG Export Plug-In . SVG Version: 6.00 Build 0)  -->
<svg version="1.1" id="图层_1" xmlns="http://www.w3.org/2000/svg" xmlns:xlink="http://www.w3.org/1999/xlink" x="0px" y="0px"
	 viewBox="0 0 200 200" style="enable-background:new 0 0 200 200;" xml:space="preserve">
<style type="text/css">
	.st0{fill:#D62D2D;}
	.st1{fill:#A888C5;}
	.st2{fill:#EDEDED;}
</style>
<circle class="st0" cx="108.9" cy="95.3" r="40.4"/>
<circle class="st1" cx="79.1" cy="70.7" r="18.2"/>
<path class="st2" d="M121.5,159c-0.6,0-1.2,0.1-1.8,0.2l-42,10.8c-3.2,0.7-5.3,3.8-4.8,7.1c0.4,3,2.7,6.1,6.5,6.1
	c0.6,0,1.2-0.1,1.8-0.2l42-10.8c3.2-0.7,5.3-3.8,4.8-7.1C127.6,162,125.2,159,121.5,159L121.5,159z M111.4,181.6
	c-1.3,0-2.5,0.4-3.6,1.2c-2.8,1.9-5.5,3-8,3.1h-0.3c-1.7-0.1-3.3-0.6-4.8-1.4c-0.1-0.1-0.7-0.4-1.1-0.7c-1-0.7-1.3-0.9-1.6-0.9
	c-1-0.5-2-0.8-3.1-0.8c-3.1,0-5.9,2-7,4.9c-0.8,2.3,0,4.7,2,6.4c4.7,3.7,10.2,5.7,15.9,5.7c5.2,0,10.3-1.7,14.9-4.8
	c2.5-1.7,3.6-4.9,2.6-7.8C116.5,183.6,114.1,181.6,111.4,181.6L111.4,181.6L111.4,181.6z M147.4,63.3c-4.5-8.5-11.5-15.6-19.9-20.3
	c-8.1-4.4-17.3-6.7-26.5-6.7c-8,0-16.1,1.7-23.4,4.9C70,44.6,63.3,49.6,58,56c-9.9,11.9-14.1,29.1-11.2,46
	c2.8,16.2,11.7,29.9,24.4,37.4c1,0.6,2.2,1,3.4,1c3.1-0.1,5.7-2.2,6.4-5.2c0.8-2.8-0.4-5.9-3-7.3c-17-10.1-21.8-34.3-16.6-51.1
	c5.1-16.2,20.8-27.1,39-27.1c7.7,0,15.2,2,21.6,5.7c8.7,5.1,15,13.6,17.6,23.9c2.8,11,1.1,22.7-4.7,32.5c-2.3,3.8-5.3,7.3-8.2,10.7
	c-1.9,2.2-3.8,4.4-5.5,6.7c-3,4-3.9,8.2-4.8,12.3l-0.5,2.2l-38.3,10.2c-3.2,0.8-5.3,3.9-4.7,7.1c0.4,3,2.7,6,6.4,6
	c0.6,0,1.2-0.1,1.8-0.3l29.9-8c1.1-0.3,2.2-0.6,3.2-0.8c8.2-2,14.6-3.6,15.4-15.4c0.3-4.2,3.8-8.1,7-11.5c0.8-0.9,1.6-1.7,2.3-2.6
	c3.8-4.4,8.5-10.5,11.5-17.6C156.9,95.8,155.7,78.9,147.4,63.3L147.4,63.3z M34.2,91.8c0-3.7-3-6.7-6.7-6.7h-13
	c-3.7,0-6.7,3-6.7,6.7s3,6.7,6.7,6.7h13C31.2,98.5,34.1,95.5,34.2,91.8L34.2,91.8L34.2,91.8z M185.5,85.1h-13c-3.7,0-6.7,3-6.7,6.7
	s3,6.7,6.7,6.7h13c3.7,0,6.7-3,6.7-6.7S189.2,85.1,185.5,85.1z M44.2,45.2c2.8,2.4,7,2.1,9.5-0.6c2.2-2.5,2.2-6.3,0-8.8l-9.2-9.2
	c-2.8-2.4-7-2.1-9.5,0.6c-2.2,2.5-2.2,6.3,0,8.8L44.2,45.2z M156.3,138.5c-2.8-2.4-7-2.1-9.5,0.6c-2.2,2.5-2.2,6.3,0,8.8l9.2,9.2
	c2.8,2.4,7,2.1,9.5-0.6c2.2-2.5,2.2-6.3,0-8.8L156.3,138.5z M100.3,27c3.7,0,6.7-3,6.7-6.7v-13c-0.2-3.7-3.3-6.5-7-6.4
	c-3.4,0.2-6.2,2.9-6.4,6.4v13C93.6,24,96.6,27,100.3,27L100.3,27z M53.7,138.5c-2.6-2.6-6.8-2.6-9.4,0l0,0l-9.2,9.2
	c-2.6,2.6-2.6,6.8,0,9.5c2.6,2.6,6.8,2.6,9.5,0l9.2-9.2C56.3,145.3,56.3,141.1,53.7,138.5z M146.8,45.2c2.6,2.6,6.8,2.6,9.4,0l0,0
	l9.2-9.2c2.6-2.6,2.6-6.8,0-9.5c-2.6-2.6-6.8-2.6-9.5,0l-9.2,9.2C144.2,38.4,144.2,42.6,146.8,45.2z"/>
</svg>
